<?xml version="1.0" encoding="UTF-8" standalone="no"?>
<!DOCTYPE svg PUBLIC "-//W3C//DTD SVG 1.1//EN"
 "http://www.w3.org/Graphics/SVG/1.1/DTD/svg11.dtd">
<!-- Generated by graphviz version 2.40.1 (20161225.0304)
 -->
<!-- Title: parsetree Pages: 1 -->
<svg width="1242pt" height="1340pt"
 viewBox="0.00 0.00 1241.74 1340.00" xmlns="http://www.w3.org/2000/svg" xmlns:xlink="http://www.w3.org/1999/xlink">
<g id="graph0" class="graph" transform="scale(1 1) rotate(0) translate(4 1336)">
<title>parsetree</title>
<polygon fill="#ffffff" stroke="transparent" points="-4,4 -4,-1336 1237.7376,-1336 1237.7376,4 -4,4"/>
<!-- node0 -->
<g id="node1" class="node">
<title>node0</title>
<ellipse fill="none" stroke="#000000" cx="330.2953" cy="-18" rx="53.8905" ry="18"/>
<text text-anchor="middle" x="330.2953" y="-14.3" font-family="Times,serif" font-size="14.00" fill="#000000">BASE &#160;0:76</text>
</g>
<!-- node1 -->
<g id="node2" class="node">
<title>node1</title>
<ellipse fill="none" stroke="#000000" cx="330.2953" cy="-90" rx="55.4913" ry="18"/>
<text text-anchor="middle" x="330.2953" y="-86.3" font-family="Times,serif" font-size="14.00" fill="#000000">ROOT &#160;0:76</text>
</g>
<!-- node1&#45;&gt;node0 -->
<g id="edge1" class="edge">
<title>node1&#45;&gt;node0</title>
<path fill="none" stroke="#000000" d="M330.2953,-71.8314C330.2953,-64.131 330.2953,-54.9743 330.2953,-46.4166"/>
<polygon fill="#000000" stroke="#000000" points="333.7954,-46.4132 330.2953,-36.4133 326.7954,-46.4133 333.7954,-46.4132"/>
</g>
<!-- node2 -->
<g id="node3" class="node">
<title>node2</title>
<ellipse fill="none" stroke="#000000" cx="330.2953" cy="-162" rx="36.2938" ry="18"/>
<text text-anchor="middle" x="330.2953" y="-158.3" font-family="Times,serif" font-size="14.00" fill="#000000">S &#160;0:76</text>
</g>
<!-- node2&#45;&gt;node1 -->
<g id="edge2" class="edge">
<title>node2&#45;&gt;node1</title>
<path fill="none" stroke="#000000" d="M330.2953,-143.8314C330.2953,-136.131 330.2953,-126.9743 330.2953,-118.4166"/>
<polygon fill="#000000" stroke="#000000" points="333.7954,-118.4132 330.2953,-108.4133 326.7954,-118.4133 333.7954,-118.4132"/>
</g>
<!-- node3 -->
<g id="node4" class="node">
<title>node3</title>
<ellipse fill="none" stroke="#000000" cx="330.2953" cy="-234" rx="54.6905" ry="18"/>
<text text-anchor="middle" x="330.2953" y="-230.3" font-family="Times,serif" font-size="14.00" fill="#000000">entries &#160;0:76</text>
</g>
<!-- node3&#45;&gt;node2 -->
<g id="edge3" class="edge">
<title>node3&#45;&gt;node2</title>
<path fill="none" stroke="#000000" d="M330.2953,-215.8314C330.2953,-208.131 330.2953,-198.9743 330.2953,-190.4166"/>
<polygon fill="#000000" stroke="#000000" points="333.7954,-190.4132 330.2953,-180.4133 326.7954,-190.4133 333.7954,-190.4132"/>
</g>
<!-- node4 -->
<g id="node5" class="node">
<title>node4</title>
<ellipse fill="none" stroke="#000000" cx="267.2953" cy="-306" rx="49.2915" ry="18"/>
<text text-anchor="middle" x="267.2953" y="-302.3" font-family="Times,serif" font-size="14.00" fill="#000000">entry &#160;0:13</text>
</g>
<!-- node4&#45;&gt;node3 -->
<g id="edge4" class="edge">
<title>node4&#45;&gt;node3</title>
<path fill="none" stroke="#000000" d="M282.5458,-288.5708C290.2273,-279.7919 299.6842,-268.9841 308.1497,-259.3093"/>
<polygon fill="#000000" stroke="#000000" points="311.0158,-261.3488 314.9668,-251.5182 305.7477,-256.7393 311.0158,-261.3488"/>
</g>
<!-- node5 -->
<g id="node6" class="node">
<title>node5</title>
<ellipse fill="none" stroke="#000000" cx="411.2953" cy="-306" rx="59.2899" ry="18"/>
<text text-anchor="middle" x="411.2953" y="-302.3" font-family="Times,serif" font-size="14.00" fill="#000000">entries &#160;14:76</text>
</g>
<!-- node5&#45;&gt;node3 -->
<g id="edge5" class="edge">
<title>node5&#45;&gt;node3</title>
<path fill="none" stroke="#000000" d="M392.0994,-288.937C381.6084,-279.6116 368.4511,-267.9163 356.9757,-257.716"/>
<polygon fill="#000000" stroke="#000000" points="359.1528,-254.9682 349.3534,-250.9405 354.5022,-260.2001 359.1528,-254.9682"/>
</g>
<!-- node6 -->
<g id="node7" class="node">
<title>node6</title>
<ellipse fill="none" stroke="#000000" cx="201.2953" cy="-378" rx="44.393" ry="18"/>
<text text-anchor="middle" x="201.2953" y="-374.3" font-family="Times,serif" font-size="14.00" fill="#000000">line &#160;0:13</text>
</g>
<!-- node6&#45;&gt;node4 -->
<g id="edge6" class="edge">
<title>node6&#45;&gt;node4</title>
<path fill="none" stroke="#000000" d="M216.9363,-360.937C225.1177,-352.0119 235.289,-340.9159 244.3444,-331.0373"/>
<polygon fill="#000000" stroke="#000000" points="247.1308,-333.1773 251.308,-323.4407 241.9707,-328.4472 247.1308,-333.1773"/>
</g>
<!-- node7 -->
<g id="node8" class="node">
<title>node7</title>
<ellipse fill="none" stroke="#000000" cx="411.2953" cy="-378" rx="53.8905" ry="18"/>
<text text-anchor="middle" x="411.2953" y="-374.3" font-family="Times,serif" font-size="14.00" fill="#000000">entry &#160;14:19</text>
</g>
<!-- node7&#45;&gt;node5 -->
<g id="edge7" class="edge">
<title>node7&#45;&gt;node5</title>
<path fill="none" stroke="#000000" d="M411.2953,-359.8314C411.2953,-352.131 411.2953,-342.9743 411.2953,-334.4166"/>
<polygon fill="#000000" stroke="#000000" points="414.7954,-334.4132 411.2953,-324.4133 407.7954,-334.4133 414.7954,-334.4132"/>
</g>
<!-- node8 -->
<g id="node9" class="node">
<title>node8</title>
<ellipse fill="none" stroke="#000000" cx="563.2953" cy="-378" rx="59.2899" ry="18"/>
<text text-anchor="middle" x="563.2953" y="-374.3" font-family="Times,serif" font-size="14.00" fill="#000000">entries &#160;20:76</text>
</g>
<!-- node8&#45;&gt;node5 -->
<g id="edge8" class="edge">
<title>node8&#45;&gt;node5</title>
<path fill="none" stroke="#000000" d="M531.06,-362.7307C508.1871,-351.8962 477.2917,-337.2615 452.6098,-325.57"/>
<polygon fill="#000000" stroke="#000000" points="454.0198,-322.3652 443.4841,-321.2473 451.0232,-328.6913 454.0198,-322.3652"/>
</g>
<!-- node9 -->
<g id="node10" class="node">
<title>node9</title>
<ellipse fill="none" stroke="#000000" cx="168.2953" cy="-450" rx="43.5923" ry="18"/>
<text text-anchor="middle" x="168.2953" y="-446.3" font-family="Times,serif" font-size="14.00" fill="#000000">stat &#160;0:13</text>
</g>
<!-- node9&#45;&gt;node6 -->
<g id="edge9" class="edge">
<title>node9&#45;&gt;node6</title>
<path fill="none" stroke="#000000" d="M176.4526,-432.2022C180.181,-424.0675 184.6806,-414.2501 188.8203,-405.2181"/>
<polygon fill="#000000" stroke="#000000" points="192.1326,-406.3915 193.1174,-395.8425 185.7691,-403.4749 192.1326,-406.3915"/>
</g>
<!-- node10 -->
<g id="node11" class="node">
<title>node10</title>
<ellipse fill="none" stroke="#000000" cx="411.2953" cy="-450" rx="48.9926" ry="18"/>
<text text-anchor="middle" x="411.2953" y="-446.3" font-family="Times,serif" font-size="14.00" fill="#000000">line &#160;14:19</text>
</g>
<!-- node10&#45;&gt;node7 -->
<g id="edge10" class="edge">
<title>node10&#45;&gt;node7</title>
<path fill="none" stroke="#000000" d="M411.2953,-431.8314C411.2953,-424.131 411.2953,-414.9743 411.2953,-406.4166"/>
<polygon fill="#000000" stroke="#000000" points="414.7954,-406.4132 411.2953,-396.4133 407.7954,-406.4133 414.7954,-406.4132"/>
</g>
<!-- node11 -->
<g id="node12" class="node">
<title>node11</title>
<ellipse fill="none" stroke="#000000" cx="563.2953" cy="-450" rx="53.8905" ry="18"/>
<text text-anchor="middle" x="563.2953" y="-446.3" font-family="Times,serif" font-size="14.00" fill="#000000">entry &#160;20:33</text>
</g>
<!-- node11&#45;&gt;node8 -->
<g id="edge11" class="edge">
<title>node11&#45;&gt;node8</title>
<path fill="none" stroke="#000000" d="M563.2953,-431.8314C563.2953,-424.131 563.2953,-414.9743 563.2953,-406.4166"/>
<polygon fill="#000000" stroke="#000000" points="566.7954,-406.4132 563.2953,-396.4133 559.7954,-406.4133 566.7954,-406.4132"/>
</g>
<!-- node12 -->
<g id="node13" class="node">
<title>node12</title>
<ellipse fill="none" stroke="#000000" cx="864.2953" cy="-450" rx="59.2899" ry="18"/>
<text text-anchor="middle" x="864.2953" y="-446.3" font-family="Times,serif" font-size="14.00" fill="#000000">entries &#160;34:76</text>
</g>
<!-- node12&#45;&gt;node8 -->
<g id="edge12" class="edge">
<title>node12&#45;&gt;node8</title>
<path fill="none" stroke="#000000" d="M817.5943,-438.829C764.3194,-426.0855 677.2108,-405.2489 620.0619,-391.5787"/>
<polygon fill="#000000" stroke="#000000" points="620.6457,-388.1197 610.1058,-389.1972 619.0172,-394.9277 620.6457,-388.1197"/>
</g>
<!-- node13 -->
<g id="node14" class="node">
<title>node13</title>
<ellipse fill="none" stroke="#000000" cx="53.2953" cy="-522" rx="53.0913" ry="18"/>
<text text-anchor="middle" x="53.2953" y="-518.3" font-family="Times,serif" font-size="14.00" fill="#000000">name &#39;a&#39; 0:1</text>
</g>
<!-- node13&#45;&gt;node9 -->
<g id="edge13" class="edge">
<title>node13&#45;&gt;node9</title>
<path fill="none" stroke="#000000" d="M78.8175,-506.0209C95.5362,-495.5535 117.5435,-481.775 135.5486,-470.5022"/>
<polygon fill="#000000" stroke="#000000" points="137.4068,-473.4683 144.0253,-465.1951 133.6921,-467.5352 137.4068,-473.4683"/>
</g>
<!-- node14 -->
<g id="node15" class="node">
<title>node14</title>
<ellipse fill="none" stroke="#000000" cx="168.2953" cy="-522" rx="44.393" ry="18"/>
<text text-anchor="middle" x="168.2953" y="-518.3" font-family="Times,serif" font-size="14.00" fill="#000000">exp &#160;4:13</text>
</g>
<!-- node14&#45;&gt;node9 -->
<g id="edge14" class="edge">
<title>node14&#45;&gt;node9</title>
<path fill="none" stroke="#000000" d="M168.2953,-503.8314C168.2953,-496.131 168.2953,-486.9743 168.2953,-478.4166"/>
<polygon fill="#000000" stroke="#000000" points="171.7954,-478.4132 168.2953,-468.4133 164.7954,-478.4133 171.7954,-478.4132"/>
</g>
<!-- node15 -->
<g id="node16" class="node">
<title>node15</title>
<ellipse fill="none" stroke="#000000" cx="411.2953" cy="-522" rx="48.1917" ry="18"/>
<text text-anchor="middle" x="411.2953" y="-518.3" font-family="Times,serif" font-size="14.00" fill="#000000">stat &#160;14:19</text>
</g>
<!-- node15&#45;&gt;node10 -->
<g id="edge15" class="edge">
<title>node15&#45;&gt;node10</title>
<path fill="none" stroke="#000000" d="M411.2953,-503.8314C411.2953,-496.131 411.2953,-486.9743 411.2953,-478.4166"/>
<polygon fill="#000000" stroke="#000000" points="414.7954,-478.4132 411.2953,-468.4133 407.7954,-478.4133 414.7954,-478.4132"/>
</g>
<!-- node16 -->
<g id="node17" class="node">
<title>node16</title>
<ellipse fill="none" stroke="#000000" cx="563.2953" cy="-522" rx="48.9926" ry="18"/>
<text text-anchor="middle" x="563.2953" y="-518.3" font-family="Times,serif" font-size="14.00" fill="#000000">line &#160;20:33</text>
</g>
<!-- node16&#45;&gt;node11 -->
<g id="edge16" class="edge">
<title>node16&#45;&gt;node11</title>
<path fill="none" stroke="#000000" d="M563.2953,-503.8314C563.2953,-496.131 563.2953,-486.9743 563.2953,-478.4166"/>
<polygon fill="#000000" stroke="#000000" points="566.7954,-478.4132 563.2953,-468.4133 559.7954,-478.4133 566.7954,-478.4132"/>
</g>
<!-- node17 -->
<g id="node18" class="node">
<title>node17</title>
<ellipse fill="none" stroke="#000000" cx="864.2953" cy="-522" rx="53.8905" ry="18"/>
<text text-anchor="middle" x="864.2953" y="-518.3" font-family="Times,serif" font-size="14.00" fill="#000000">entry &#160;34:61</text>
</g>
<!-- node17&#45;&gt;node12 -->
<g id="edge17" class="edge">
<title>node17&#45;&gt;node12</title>
<path fill="none" stroke="#000000" d="M864.2953,-503.8314C864.2953,-496.131 864.2953,-486.9743 864.2953,-478.4166"/>
<polygon fill="#000000" stroke="#000000" points="867.7954,-478.4132 864.2953,-468.4133 860.7954,-478.4133 867.7954,-478.4132"/>
</g>
<!-- node18 -->
<g id="node19" class="node">
<title>node18</title>
<ellipse fill="none" stroke="#000000" cx="1071.2953" cy="-522" rx="59.2899" ry="18"/>
<text text-anchor="middle" x="1071.2953" y="-518.3" font-family="Times,serif" font-size="14.00" fill="#000000">entries &#160;62:76</text>
</g>
<!-- node18&#45;&gt;node12 -->
<g id="edge18" class="edge">
<title>node18&#45;&gt;node12</title>
<path fill="none" stroke="#000000" d="M1031.8729,-508.2879C998.2051,-496.5773 949.6234,-479.6793 913.4285,-467.0898"/>
<polygon fill="#000000" stroke="#000000" points="914.1657,-463.6406 903.5709,-463.6611 911.866,-470.2521 914.1657,-463.6406"/>
</g>
<!-- node19 -->
<g id="node20" class="node">
<title>node19</title>
<ellipse fill="none" stroke="#000000" cx="159.2953" cy="-594" rx="51.1914" ry="18"/>
<text text-anchor="middle" x="159.2953" y="-590.3" font-family="Times,serif" font-size="14.00" fill="#000000">binop &#160;4:13</text>
</g>
<!-- node19&#45;&gt;node14 -->
<g id="edge19" class="edge">
<title>node19&#45;&gt;node14</title>
<path fill="none" stroke="#000000" d="M161.5664,-575.8314C162.5289,-568.131 163.6735,-558.9743 164.7432,-550.4166"/>
<polygon fill="#000000" stroke="#000000" points="168.2262,-550.7702 165.9936,-540.4133 161.2802,-549.9019 168.2262,-550.7702"/>
</g>
<!-- node20 -->
<g id="node21" class="node">
<title>node20</title>
<ellipse fill="none" stroke="#000000" cx="291.2953" cy="-594" rx="62.2891" ry="18"/>
<text text-anchor="middle" x="291.2953" y="-590.3" font-family="Times,serif" font-size="14.00" fill="#000000">name &#39;b&#39; 14:15</text>
</g>
<!-- node20&#45;&gt;node15 -->
<g id="edge20" class="edge">
<title>node20&#45;&gt;node15</title>
<path fill="none" stroke="#000000" d="M318.5251,-577.6621C335.8776,-567.2506 358.505,-553.6741 377.0686,-542.536"/>
<polygon fill="#000000" stroke="#000000" points="379.0401,-545.4349 385.8142,-537.2886 375.4385,-539.4324 379.0401,-545.4349"/>
</g>
<!-- node21 -->
<g id="node22" class="node">
<title>node21</title>
<ellipse fill="none" stroke="#000000" cx="419.2953" cy="-594" rx="48.1917" ry="18"/>
<text text-anchor="middle" x="419.2953" y="-590.3" font-family="Times,serif" font-size="14.00" fill="#000000">exp &#160;18:19</text>
</g>
<!-- node21&#45;&gt;node15 -->
<g id="edge21" class="edge">
<title>node21&#45;&gt;node15</title>
<path fill="none" stroke="#000000" d="M417.2765,-575.8314C416.4209,-568.131 415.4035,-558.9743 414.4527,-550.4166"/>
<polygon fill="#000000" stroke="#000000" points="417.9242,-549.9656 413.3412,-540.4133 410.967,-550.7386 417.9242,-549.9656"/>
</g>
<!-- node22 -->
<g id="node23" class="node">
<title>node22</title>
<ellipse fill="none" stroke="#000000" cx="563.2953" cy="-594" rx="48.1917" ry="18"/>
<text text-anchor="middle" x="563.2953" y="-590.3" font-family="Times,serif" font-size="14.00" fill="#000000">stat &#160;20:33</text>
</g>
<!-- node22&#45;&gt;node16 -->
<g id="edge22" class="edge">
<title>node22&#45;&gt;node16</title>
<path fill="none" stroke="#000000" d="M563.2953,-575.8314C563.2953,-568.131 563.2953,-558.9743 563.2953,-550.4166"/>
<polygon fill="#000000" stroke="#000000" points="566.7954,-550.4132 563.2953,-540.4133 559.7954,-550.4133 566.7954,-550.4132"/>
</g>
<!-- node23 -->
<g id="node24" class="node">
<title>node23</title>
<ellipse fill="none" stroke="#000000" cx="864.2953" cy="-594" rx="55.4913" ry="18"/>
<text text-anchor="middle" x="864.2953" y="-590.3" font-family="Times,serif" font-size="14.00" fill="#000000">afunc &#160;34:61</text>
</g>
<!-- node23&#45;&gt;node17 -->
<g id="edge23" class="edge">
<title>node23&#45;&gt;node17</title>
<path fill="none" stroke="#000000" d="M864.2953,-575.8314C864.2953,-568.131 864.2953,-558.9743 864.2953,-550.4166"/>
<polygon fill="#000000" stroke="#000000" points="867.7954,-550.4132 864.2953,-540.4133 860.7954,-550.4133 867.7954,-550.4132"/>
</g>
<!-- node24 -->
<g id="node25" class="node">
<title>node24</title>
<ellipse fill="none" stroke="#000000" cx="1109.2953" cy="-594" rx="53.8905" ry="18"/>
<text text-anchor="middle" x="1109.2953" y="-590.3" font-family="Times,serif" font-size="14.00" fill="#000000">entry &#160;62:75</text>
</g>
<!-- node24&#45;&gt;node18 -->
<g id="edge24" class="edge">
<title>node24&#45;&gt;node18</title>
<path fill="none" stroke="#000000" d="M1099.902,-576.2022C1095.563,-567.981 1090.3169,-558.041 1085.5084,-548.9301"/>
<polygon fill="#000000" stroke="#000000" points="1088.4752,-547.0527 1080.7122,-539.8425 1082.2845,-550.3201 1088.4752,-547.0527"/>
</g>
<!-- node25 -->
<g id="node26" class="node">
<title>node25</title>
<ellipse fill="none" stroke="#000000" cx="159.2953" cy="-666" rx="55.4913" ry="18"/>
<text text-anchor="middle" x="159.2953" y="-662.3" font-family="Times,serif" font-size="14.00" fill="#000000">binopa &#160;4:13</text>
</g>
<!-- node25&#45;&gt;node19 -->
<g id="edge25" class="edge">
<title>node25&#45;&gt;node19</title>
<path fill="none" stroke="#000000" d="M159.2953,-647.8314C159.2953,-640.131 159.2953,-630.9743 159.2953,-622.4166"/>
<polygon fill="#000000" stroke="#000000" points="162.7954,-622.4132 159.2953,-612.4133 155.7954,-622.4133 162.7954,-622.4132"/>
</g>
<!-- node26 -->
<g id="node27" class="node">
<title>node26</title>
<ellipse fill="none" stroke="#000000" cx="314.2953" cy="-666" rx="70.3881" ry="18"/>
<text text-anchor="middle" x="314.2953" y="-662.3" font-family="Times,serif" font-size="14.00" fill="#000000">number &#39;7&#39; 18:19</text>
</g>
<!-- node26&#45;&gt;node21 -->
<g id="edge26" class="edge">
<title>node26&#45;&gt;node21</title>
<path fill="none" stroke="#000000" d="M338.9131,-649.1192C353.438,-639.1593 371.974,-626.4489 387.5851,-615.7441"/>
<polygon fill="#000000" stroke="#000000" points="389.645,-618.5755 395.9129,-610.0336 385.6862,-612.8024 389.645,-618.5755"/>
</g>
<!-- node27 -->
<g id="node28" class="node">
<title>node27</title>
<ellipse fill="none" stroke="#000000" cx="464.2953" cy="-666" rx="61.99" ry="18"/>
<text text-anchor="middle" x="464.2953" y="-662.3" font-family="Times,serif" font-size="14.00" fill="#000000">name &#39;a&#39; 20:21</text>
</g>
<!-- node27&#45;&gt;node22 -->
<g id="edge27" class="edge">
<title>node27&#45;&gt;node22</title>
<path fill="none" stroke="#000000" d="M487.5064,-649.1192C501.0744,-639.2515 518.3547,-626.684 532.9875,-616.042"/>
<polygon fill="#000000" stroke="#000000" points="535.2203,-618.746 541.249,-610.0336 531.103,-613.0848 535.2203,-618.746"/>
</g>
<!-- node28 -->
<g id="node29" class="node">
<title>node28</title>
<ellipse fill="none" stroke="#000000" cx="592.2953" cy="-666" rx="48.1917" ry="18"/>
<text text-anchor="middle" x="592.2953" y="-662.3" font-family="Times,serif" font-size="14.00" fill="#000000">exp &#160;24:33</text>
</g>
<!-- node28&#45;&gt;node22 -->
<g id="edge28" class="edge">
<title>node28&#45;&gt;node22</title>
<path fill="none" stroke="#000000" d="M584.9773,-647.8314C581.7589,-639.8406 577.9088,-630.2819 574.3521,-621.4514"/>
<polygon fill="#000000" stroke="#000000" points="577.4931,-619.8816 570.5104,-611.9134 571,-622.4969 577.4931,-619.8816"/>
</g>
<!-- node29 -->
<g id="node30" class="node">
<title>node29</title>
<ellipse fill="none" stroke="#000000" cx="727.2953" cy="-666" rx="68.7879" ry="18"/>
<text text-anchor="middle" x="727.2953" y="-662.3" font-family="Times,serif" font-size="14.00" fill="#000000">name &#39;bla&#39; 39:42</text>
</g>
<!-- node29&#45;&gt;node23 -->
<g id="edge29" class="edge">
<title>node29&#45;&gt;node23</title>
<path fill="none" stroke="#000000" d="M758.0407,-649.8418C778.1974,-639.2485 804.6967,-625.3219 826.1889,-614.0267"/>
<polygon fill="#000000" stroke="#000000" points="827.8365,-617.1148 835.0603,-609.3644 824.58,-610.9184 827.8365,-617.1148"/>
</g>
<!-- node30 -->
<g id="node31" class="node">
<title>node30</title>
<ellipse fill="none" stroke="#000000" cx="864.2953" cy="-666" rx="50.0912" ry="18"/>
<text text-anchor="middle" x="864.2953" y="-662.3" font-family="Times,serif" font-size="14.00" fill="#000000">args &#160;43:44</text>
</g>
<!-- node30&#45;&gt;node23 -->
<g id="edge30" class="edge">
<title>node30&#45;&gt;node23</title>
<path fill="none" stroke="#000000" d="M864.2953,-647.8314C864.2953,-640.131 864.2953,-630.9743 864.2953,-622.4166"/>
<polygon fill="#000000" stroke="#000000" points="867.7954,-622.4132 864.2953,-612.4133 860.7954,-622.4133 867.7954,-622.4132"/>
</g>
<!-- node31 -->
<g id="node32" class="node">
<title>node31</title>
<ellipse fill="none" stroke="#000000" cx="987.2953" cy="-666" rx="55.4913" ry="18"/>
<text text-anchor="middle" x="987.2953" y="-662.3" font-family="Times,serif" font-size="14.00" fill="#000000">block &#160;45:61</text>
</g>
<!-- node31&#45;&gt;node23 -->
<g id="edge31" class="edge">
<title>node31&#45;&gt;node23</title>
<path fill="none" stroke="#000000" d="M960.3024,-650.1993C942.5983,-639.8359 919.2534,-626.1706 900.0168,-614.9102"/>
<polygon fill="#000000" stroke="#000000" points="901.6235,-611.7951 891.2252,-609.7638 898.0872,-617.8362 901.6235,-611.7951"/>
</g>
<!-- node32 -->
<g id="node33" class="node">
<title>node32</title>
<ellipse fill="none" stroke="#000000" cx="1147.2953" cy="-666" rx="86.3847" ry="18"/>
<text text-anchor="middle" x="1147.2953" y="-662.3" font-family="Times,serif" font-size="14.00" fill="#000000">printstatement &#160;62:75</text>
</g>
<!-- node32&#45;&gt;node24 -->
<g id="edge32" class="edge">
<title>node32&#45;&gt;node24</title>
<path fill="none" stroke="#000000" d="M1137.7063,-647.8314C1133.3982,-639.6688 1128.2267,-629.87 1123.4834,-620.8827"/>
<polygon fill="#000000" stroke="#000000" points="1126.5126,-619.1236 1118.7496,-611.9134 1120.3219,-622.3909 1126.5126,-619.1236"/>
</g>
<!-- node33 -->
<g id="node34" class="node">
<title>node33</title>
<ellipse fill="none" stroke="#000000" cx="159.2953" cy="-738" rx="50.8918" ry="18"/>
<text text-anchor="middle" x="159.2953" y="-734.3" font-family="Times,serif" font-size="14.00" fill="#000000">times &#160;4:13</text>
</g>
<!-- node33&#45;&gt;node25 -->
<g id="edge33" class="edge">
<title>node33&#45;&gt;node25</title>
<path fill="none" stroke="#000000" d="M159.2953,-719.8314C159.2953,-712.131 159.2953,-702.9743 159.2953,-694.4166"/>
<polygon fill="#000000" stroke="#000000" points="162.7954,-694.4132 159.2953,-684.4133 155.7954,-694.4133 162.7954,-694.4132"/>
</g>
<!-- node34 -->
<g id="node35" class="node">
<title>node34</title>
<ellipse fill="none" stroke="#000000" cx="592.2953" cy="-738" rx="55.7903" ry="18"/>
<text text-anchor="middle" x="592.2953" y="-734.3" font-family="Times,serif" font-size="14.00" fill="#000000">binop &#160;24:33</text>
</g>
<!-- node34&#45;&gt;node28 -->
<g id="edge34" class="edge">
<title>node34&#45;&gt;node28</title>
<path fill="none" stroke="#000000" d="M592.2953,-719.8314C592.2953,-712.131 592.2953,-702.9743 592.2953,-694.4166"/>
<polygon fill="#000000" stroke="#000000" points="595.7954,-694.4132 592.2953,-684.4133 588.7954,-694.4133 595.7954,-694.4132"/>
</g>
<!-- node35 -->
<g id="node36" class="node">
<title>node35</title>
<ellipse fill="none" stroke="#000000" cx="856.2953" cy="-738" rx="61.99" ry="18"/>
<text text-anchor="middle" x="856.2953" y="-734.3" font-family="Times,serif" font-size="14.00" fill="#000000">name &#39;s&#39; 43:44</text>
</g>
<!-- node35&#45;&gt;node30 -->
<g id="edge35" class="edge">
<title>node35&#45;&gt;node30</title>
<path fill="none" stroke="#000000" d="M858.314,-719.8314C859.1696,-712.131 860.187,-702.9743 861.1379,-694.4166"/>
<polygon fill="#000000" stroke="#000000" points="864.6235,-694.7386 862.2494,-684.4133 857.6664,-693.9656 864.6235,-694.7386"/>
</g>
<!-- node36 -->
<g id="node37" class="node">
<title>node36</title>
<ellipse fill="none" stroke="#000000" cx="995.2953" cy="-738" rx="59.2899" ry="18"/>
<text text-anchor="middle" x="995.2953" y="-734.3" font-family="Times,serif" font-size="14.00" fill="#000000">entries &#160;47:60</text>
</g>
<!-- node36&#45;&gt;node31 -->
<g id="edge36" class="edge">
<title>node36&#45;&gt;node31</title>
<path fill="none" stroke="#000000" d="M993.2765,-719.8314C992.4209,-712.131 991.4035,-702.9743 990.4527,-694.4166"/>
<polygon fill="#000000" stroke="#000000" points="993.9242,-693.9656 989.3412,-684.4133 986.967,-694.7386 993.9242,-693.9656"/>
</g>
<!-- node37 -->
<g id="node38" class="node">
<title>node37</title>
<ellipse fill="none" stroke="#000000" cx="1147.2953" cy="-738" rx="55.7903" ry="18"/>
<text text-anchor="middle" x="1147.2953" y="-734.3" font-family="Times,serif" font-size="14.00" fill="#000000">string &#160;68:74</text>
</g>
<!-- node37&#45;&gt;node32 -->
<g id="edge37" class="edge">
<title>node37&#45;&gt;node32</title>
<path fill="none" stroke="#000000" d="M1147.2953,-719.8314C1147.2953,-712.131 1147.2953,-702.9743 1147.2953,-694.4166"/>
<polygon fill="#000000" stroke="#000000" points="1150.7954,-694.4132 1147.2953,-684.4133 1143.7954,-694.4133 1150.7954,-694.4132"/>
</g>
<!-- node38 -->
<g id="node39" class="node">
<title>node38</title>
<ellipse fill="none" stroke="#000000" cx="126.2953" cy="-810" rx="39.7935" ry="18"/>
<text text-anchor="middle" x="126.2953" y="-806.3" font-family="Times,serif" font-size="14.00" fill="#000000">exp &#160;4:5</text>
</g>
<!-- node38&#45;&gt;node33 -->
<g id="edge38" class="edge">
<title>node38&#45;&gt;node33</title>
<path fill="none" stroke="#000000" d="M134.4526,-792.2022C138.181,-784.0675 142.6806,-774.2501 146.8203,-765.2181"/>
<polygon fill="#000000" stroke="#000000" points="150.1326,-766.3915 151.1174,-755.8425 143.7691,-763.4749 150.1326,-766.3915"/>
</g>
<!-- node39 -->
<g id="node40" class="node">
<title>node39</title>
<ellipse fill="none" stroke="#000000" cx="235.2953" cy="-810" rx="44.393" ry="18"/>
<text text-anchor="middle" x="235.2953" y="-806.3" font-family="Times,serif" font-size="14.00" fill="#000000">exp &#160;8:13</text>
</g>
<!-- node39&#45;&gt;node33 -->
<g id="edge39" class="edge">
<title>node39&#45;&gt;node33</title>
<path fill="none" stroke="#000000" d="M217.6683,-793.3008C207.8589,-784.0077 195.478,-772.2784 184.6453,-762.0158"/>
<polygon fill="#000000" stroke="#000000" points="186.7566,-759.1947 177.0899,-754.8581 181.9423,-764.2764 186.7566,-759.1947"/>
</g>
<!-- node40 -->
<g id="node41" class="node">
<title>node40</title>
<ellipse fill="none" stroke="#000000" cx="592.2953" cy="-810" rx="59.5901" ry="18"/>
<text text-anchor="middle" x="592.2953" y="-806.3" font-family="Times,serif" font-size="14.00" fill="#000000">binopa &#160;24:33</text>
</g>
<!-- node40&#45;&gt;node34 -->
<g id="edge40" class="edge">
<title>node40&#45;&gt;node34</title>
<path fill="none" stroke="#000000" d="M592.2953,-791.8314C592.2953,-784.131 592.2953,-774.9743 592.2953,-766.4166"/>
<polygon fill="#000000" stroke="#000000" points="595.7954,-766.4132 592.2953,-756.4133 588.7954,-766.4133 595.7954,-766.4132"/>
</g>
<!-- node41 -->
<g id="node42" class="node">
<title>node41</title>
<ellipse fill="none" stroke="#000000" cx="995.2953" cy="-810" rx="53.8905" ry="18"/>
<text text-anchor="middle" x="995.2953" y="-806.3" font-family="Times,serif" font-size="14.00" fill="#000000">entry &#160;52:59</text>
</g>
<!-- node41&#45;&gt;node36 -->
<g id="edge41" class="edge">
<title>node41&#45;&gt;node36</title>
<path fill="none" stroke="#000000" d="M995.2953,-791.8314C995.2953,-784.131 995.2953,-774.9743 995.2953,-766.4166"/>
<polygon fill="#000000" stroke="#000000" points="998.7954,-766.4132 995.2953,-756.4133 991.7954,-766.4133 998.7954,-766.4132"/>
</g>
<!-- node42 -->
<g id="node43" class="node">
<title>node42</title>
<ellipse fill="none" stroke="#000000" cx="1147.2953" cy="-810" rx="70.3881" ry="18"/>
<text text-anchor="middle" x="1147.2953" y="-806.3" font-family="Times,serif" font-size="14.00" fill="#000000">name &#39;test&#39; 69:73</text>
</g>
<!-- node42&#45;&gt;node37 -->
<g id="edge42" class="edge">
<title>node42&#45;&gt;node37</title>
<path fill="none" stroke="#000000" d="M1147.2953,-791.8314C1147.2953,-784.131 1147.2953,-774.9743 1147.2953,-766.4166"/>
<polygon fill="#000000" stroke="#000000" points="1150.7954,-766.4132 1147.2953,-756.4133 1143.7954,-766.4133 1150.7954,-766.4132"/>
</g>
<!-- node43 -->
<g id="node44" class="node">
<title>node43</title>
<ellipse fill="none" stroke="#000000" cx="112.2953" cy="-882" rx="61.99" ry="18"/>
<text text-anchor="middle" x="112.2953" y="-878.3" font-family="Times,serif" font-size="14.00" fill="#000000">number &#39;5&#39; 4:5</text>
</g>
<!-- node43&#45;&gt;node38 -->
<g id="edge43" class="edge">
<title>node43&#45;&gt;node38</title>
<path fill="none" stroke="#000000" d="M115.8281,-863.8314C117.3254,-856.131 119.1058,-846.9743 120.7698,-838.4166"/>
<polygon fill="#000000" stroke="#000000" points="124.2418,-838.8975 122.7149,-828.4133 117.3705,-837.5614 124.2418,-838.8975"/>
</g>
<!-- node44 -->
<g id="node45" class="node">
<title>node44</title>
<ellipse fill="none" stroke="#000000" cx="243.2953" cy="-882" rx="51.1914" ry="18"/>
<text text-anchor="middle" x="243.2953" y="-878.3" font-family="Times,serif" font-size="14.00" fill="#000000">binop &#160;8:13</text>
</g>
<!-- node44&#45;&gt;node39 -->
<g id="edge44" class="edge">
<title>node44&#45;&gt;node39</title>
<path fill="none" stroke="#000000" d="M241.2765,-863.8314C240.4209,-856.131 239.4035,-846.9743 238.4527,-838.4166"/>
<polygon fill="#000000" stroke="#000000" points="241.9242,-837.9656 237.3412,-828.4133 234.967,-838.7386 241.9242,-837.9656"/>
</g>
<!-- node45 -->
<g id="node46" class="node">
<title>node45</title>
<ellipse fill="none" stroke="#000000" cx="592.2953" cy="-882" rx="57.6901" ry="18"/>
<text text-anchor="middle" x="592.2953" y="-878.3" font-family="Times,serif" font-size="14.00" fill="#000000">divide &#160;24:33</text>
</g>
<!-- node45&#45;&gt;node40 -->
<g id="edge45" class="edge">
<title>node45&#45;&gt;node40</title>
<path fill="none" stroke="#000000" d="M592.2953,-863.8314C592.2953,-856.131 592.2953,-846.9743 592.2953,-838.4166"/>
<polygon fill="#000000" stroke="#000000" points="595.7954,-838.4132 592.2953,-828.4133 588.7954,-838.4133 595.7954,-838.4132"/>
</g>
<!-- node46 -->
<g id="node47" class="node">
<title>node46</title>
<ellipse fill="none" stroke="#000000" cx="995.2953" cy="-882" rx="48.9926" ry="18"/>
<text text-anchor="middle" x="995.2953" y="-878.3" font-family="Times,serif" font-size="14.00" fill="#000000">line &#160;52:59</text>
</g>
<!-- node46&#45;&gt;node41 -->
<g id="edge46" class="edge">
<title>node46&#45;&gt;node41</title>
<path fill="none" stroke="#000000" d="M995.2953,-863.8314C995.2953,-856.131 995.2953,-846.9743 995.2953,-838.4166"/>
<polygon fill="#000000" stroke="#000000" points="998.7954,-838.4132 995.2953,-828.4133 991.7954,-838.4133 998.7954,-838.4132"/>
</g>
<!-- node47 -->
<g id="node48" class="node">
<title>node47</title>
<ellipse fill="none" stroke="#000000" cx="243.2953" cy="-954" rx="55.7903" ry="18"/>
<text text-anchor="middle" x="243.2953" y="-950.3" font-family="Times,serif" font-size="14.00" fill="#000000">binopb &#160;8:13</text>
</g>
<!-- node47&#45;&gt;node44 -->
<g id="edge47" class="edge">
<title>node47&#45;&gt;node44</title>
<path fill="none" stroke="#000000" d="M243.2953,-935.8314C243.2953,-928.131 243.2953,-918.9743 243.2953,-910.4166"/>
<polygon fill="#000000" stroke="#000000" points="246.7954,-910.4132 243.2953,-900.4133 239.7954,-910.4133 246.7954,-910.4132"/>
</g>
<!-- node48 -->
<g id="node49" class="node">
<title>node48</title>
<ellipse fill="none" stroke="#000000" cx="548.2953" cy="-954" rx="48.1917" ry="18"/>
<text text-anchor="middle" x="548.2953" y="-950.3" font-family="Times,serif" font-size="14.00" fill="#000000">exp &#160;24:29</text>
</g>
<!-- node48&#45;&gt;node45 -->
<g id="edge48" class="edge">
<title>node48&#45;&gt;node45</title>
<path fill="none" stroke="#000000" d="M559.1717,-936.2022C564.2487,-927.8944 570.3982,-917.8316 576.0136,-908.6427"/>
<polygon fill="#000000" stroke="#000000" points="579.1634,-910.2005 581.3915,-899.8425 573.1905,-906.5503 579.1634,-910.2005"/>
</g>
<!-- node49 -->
<g id="node50" class="node">
<title>node49</title>
<ellipse fill="none" stroke="#000000" cx="677.2953" cy="-954" rx="48.1917" ry="18"/>
<text text-anchor="middle" x="677.2953" y="-950.3" font-family="Times,serif" font-size="14.00" fill="#000000">exp &#160;32:33</text>
</g>
<!-- node49&#45;&gt;node45 -->
<g id="edge49" class="edge">
<title>node49&#45;&gt;node45</title>
<path fill="none" stroke="#000000" d="M657.5809,-937.3008C646.4773,-927.8954 632.4278,-915.9946 620.2088,-905.6444"/>
<polygon fill="#000000" stroke="#000000" points="622.3857,-902.9015 612.493,-899.1086 617.8612,-908.2428 622.3857,-902.9015"/>
</g>
<!-- node50 -->
<g id="node51" class="node">
<title>node50</title>
<ellipse fill="none" stroke="#000000" cx="995.2953" cy="-954" rx="48.1917" ry="18"/>
<text text-anchor="middle" x="995.2953" y="-950.3" font-family="Times,serif" font-size="14.00" fill="#000000">stat &#160;52:59</text>
</g>
<!-- node50&#45;&gt;node46 -->
<g id="edge50" class="edge">
<title>node50&#45;&gt;node46</title>
<path fill="none" stroke="#000000" d="M995.2953,-935.8314C995.2953,-928.131 995.2953,-918.9743 995.2953,-910.4166"/>
<polygon fill="#000000" stroke="#000000" points="998.7954,-910.4132 995.2953,-900.4133 991.7954,-910.4133 998.7954,-910.4132"/>
</g>
<!-- node51 -->
<g id="node52" class="node">
<title>node51</title>
<ellipse fill="none" stroke="#000000" cx="243.2953" cy="-1026" rx="46.2923" ry="18"/>
<text text-anchor="middle" x="243.2953" y="-1022.3" font-family="Times,serif" font-size="14.00" fill="#000000">plus &#160;8:13</text>
</g>
<!-- node51&#45;&gt;node47 -->
<g id="edge51" class="edge">
<title>node51&#45;&gt;node47</title>
<path fill="none" stroke="#000000" d="M243.2953,-1007.8314C243.2953,-1000.131 243.2953,-990.9743 243.2953,-982.4166"/>
<polygon fill="#000000" stroke="#000000" points="246.7954,-982.4132 243.2953,-972.4133 239.7954,-982.4133 246.7954,-982.4132"/>
</g>
<!-- node52 -->
<g id="node53" class="node">
<title>node52</title>
<ellipse fill="none" stroke="#000000" cx="540.2953" cy="-1026" rx="55.7903" ry="18"/>
<text text-anchor="middle" x="540.2953" y="-1022.3" font-family="Times,serif" font-size="14.00" fill="#000000">binop &#160;24:29</text>
</g>
<!-- node52&#45;&gt;node48 -->
<g id="edge52" class="edge">
<title>node52&#45;&gt;node48</title>
<path fill="none" stroke="#000000" d="M542.314,-1007.8314C543.1696,-1000.131 544.187,-990.9743 545.1379,-982.4166"/>
<polygon fill="#000000" stroke="#000000" points="548.6235,-982.7386 546.2494,-972.4133 541.6664,-981.9656 548.6235,-982.7386"/>
</g>
<!-- node53 -->
<g id="node54" class="node">
<title>node53</title>
<ellipse fill="none" stroke="#000000" cx="684.2953" cy="-1026" rx="70.3881" ry="18"/>
<text text-anchor="middle" x="684.2953" y="-1022.3" font-family="Times,serif" font-size="14.00" fill="#000000">number &#39;8&#39; 32:33</text>
</g>
<!-- node53&#45;&gt;node49 -->
<g id="edge53" class="edge">
<title>node53&#45;&gt;node49</title>
<path fill="none" stroke="#000000" d="M682.5289,-1007.8314C681.7802,-1000.131 680.89,-990.9743 680.058,-982.4166"/>
<polygon fill="#000000" stroke="#000000" points="683.5368,-982.0276 679.0854,-972.4133 676.5696,-982.7051 683.5368,-982.0276"/>
</g>
<!-- node54 -->
<g id="node55" class="node">
<title>node54</title>
<ellipse fill="none" stroke="#000000" cx="927.2953" cy="-1026" rx="69.5877" ry="18"/>
<text text-anchor="middle" x="927.2953" y="-1022.3" font-family="Times,serif" font-size="14.00" fill="#000000">name &#39;ddf&#39; 52:55</text>
</g>
<!-- node54&#45;&gt;node50 -->
<g id="edge54" class="edge">
<title>node54&#45;&gt;node50</title>
<path fill="none" stroke="#000000" d="M944.1043,-1008.2022C952.5454,-999.2646 962.9049,-988.2957 972.0912,-978.569"/>
<polygon fill="#000000" stroke="#000000" points="974.8262,-980.7706 979.1479,-971.0972 969.7371,-975.9642 974.8262,-980.7706"/>
</g>
<!-- node55 -->
<g id="node56" class="node">
<title>node55</title>
<ellipse fill="none" stroke="#000000" cx="1063.2953" cy="-1026" rx="48.1917" ry="18"/>
<text text-anchor="middle" x="1063.2953" y="-1022.3" font-family="Times,serif" font-size="14.00" fill="#000000">exp &#160;58:59</text>
</g>
<!-- node55&#45;&gt;node50 -->
<g id="edge55" class="edge">
<title>node55&#45;&gt;node50</title>
<path fill="none" stroke="#000000" d="M1047.1802,-1008.937C1038.6675,-999.9235 1028.0637,-988.6959 1018.6649,-978.7443"/>
<polygon fill="#000000" stroke="#000000" points="1021.1778,-976.3076 1011.767,-971.4407 1016.0887,-981.114 1021.1778,-976.3076"/>
</g>
<!-- node56 -->
<g id="node57" class="node">
<title>node56</title>
<ellipse fill="none" stroke="#000000" cx="215.2953" cy="-1098" rx="39.7935" ry="18"/>
<text text-anchor="middle" x="215.2953" y="-1094.3" font-family="Times,serif" font-size="14.00" fill="#000000">exp &#160;8:9</text>
</g>
<!-- node56&#45;&gt;node51 -->
<g id="edge56" class="edge">
<title>node56&#45;&gt;node51</title>
<path fill="none" stroke="#000000" d="M222.2166,-1080.2022C225.3801,-1072.0675 229.198,-1062.2501 232.7104,-1053.2181"/>
<polygon fill="#000000" stroke="#000000" points="235.994,-1054.4312 236.3565,-1043.8425 229.47,-1051.894 235.994,-1054.4312"/>
</g>
<!-- node57 -->
<g id="node58" class="node">
<title>node57</title>
<ellipse fill="none" stroke="#000000" cx="336.2953" cy="-1098" rx="48.1917" ry="18"/>
<text text-anchor="middle" x="336.2953" y="-1094.3" font-family="Times,serif" font-size="14.00" fill="#000000">exp &#160;12:13</text>
</g>
<!-- node57&#45;&gt;node51 -->
<g id="edge57" class="edge">
<title>node57&#45;&gt;node51</title>
<path fill="none" stroke="#000000" d="M315.1921,-1081.6621C302.5881,-1071.9041 286.3929,-1059.3659 272.5653,-1048.6607"/>
<polygon fill="#000000" stroke="#000000" points="274.3648,-1045.6275 264.3149,-1042.2733 270.0795,-1051.1626 274.3648,-1045.6275"/>
</g>
<!-- node58 -->
<g id="node59" class="node">
<title>node58</title>
<ellipse fill="none" stroke="#000000" cx="540.2953" cy="-1098" rx="59.5901" ry="18"/>
<text text-anchor="middle" x="540.2953" y="-1094.3" font-family="Times,serif" font-size="14.00" fill="#000000">binopb &#160;24:29</text>
</g>
<!-- node58&#45;&gt;node52 -->
<g id="edge58" class="edge">
<title>node58&#45;&gt;node52</title>
<path fill="none" stroke="#000000" d="M540.2953,-1079.8314C540.2953,-1072.131 540.2953,-1062.9743 540.2953,-1054.4166"/>
<polygon fill="#000000" stroke="#000000" points="543.7954,-1054.4132 540.2953,-1044.4133 536.7954,-1054.4133 543.7954,-1054.4132"/>
</g>
<!-- node59 -->
<g id="node60" class="node">
<title>node59</title>
<ellipse fill="none" stroke="#000000" cx="1063.2953" cy="-1098" rx="70.3881" ry="18"/>
<text text-anchor="middle" x="1063.2953" y="-1094.3" font-family="Times,serif" font-size="14.00" fill="#000000">number &#39;1&#39; 58:59</text>
</g>
<!-- node59&#45;&gt;node55 -->
<g id="edge59" class="edge">
<title>node59&#45;&gt;node55</title>
<path fill="none" stroke="#000000" d="M1063.2953,-1079.8314C1063.2953,-1072.131 1063.2953,-1062.9743 1063.2953,-1054.4166"/>
<polygon fill="#000000" stroke="#000000" points="1066.7954,-1054.4132 1063.2953,-1044.4133 1059.7954,-1054.4133 1066.7954,-1054.4132"/>
</g>
<!-- node60 -->
<g id="node61" class="node">
<title>node60</title>
<ellipse fill="none" stroke="#000000" cx="201.2953" cy="-1170" rx="61.99" ry="18"/>
<text text-anchor="middle" x="201.2953" y="-1166.3" font-family="Times,serif" font-size="14.00" fill="#000000">number &#39;3&#39; 8:9</text>
</g>
<!-- node60&#45;&gt;node56 -->
<g id="edge60" class="edge">
<title>node60&#45;&gt;node56</title>
<path fill="none" stroke="#000000" d="M204.8281,-1151.8314C206.3254,-1144.131 208.1058,-1134.9743 209.7698,-1126.4166"/>
<polygon fill="#000000" stroke="#000000" points="213.2418,-1126.8975 211.7149,-1116.4133 206.3705,-1125.5614 213.2418,-1126.8975"/>
</g>
<!-- node61 -->
<g id="node62" class="node">
<title>node61</title>
<ellipse fill="none" stroke="#000000" cx="351.2953" cy="-1170" rx="70.3881" ry="18"/>
<text text-anchor="middle" x="351.2953" y="-1166.3" font-family="Times,serif" font-size="14.00" fill="#000000">number &#39;1&#39; 12:13</text>
</g>
<!-- node61&#45;&gt;node57 -->
<g id="edge61" class="edge">
<title>node61&#45;&gt;node57</title>
<path fill="none" stroke="#000000" d="M347.5101,-1151.8314C345.9059,-1144.131 343.9983,-1134.9743 342.2154,-1126.4166"/>
<polygon fill="#000000" stroke="#000000" points="345.5974,-1125.4892 340.1314,-1116.4133 338.7446,-1126.9169 345.5974,-1125.4892"/>
</g>
<!-- node62 -->
<g id="node63" class="node">
<title>node62</title>
<ellipse fill="none" stroke="#000000" cx="540.2953" cy="-1170" rx="50.0912" ry="18"/>
<text text-anchor="middle" x="540.2953" y="-1166.3" font-family="Times,serif" font-size="14.00" fill="#000000">plus &#160;24:29</text>
</g>
<!-- node62&#45;&gt;node58 -->
<g id="edge62" class="edge">
<title>node62&#45;&gt;node58</title>
<path fill="none" stroke="#000000" d="M540.2953,-1151.8314C540.2953,-1144.131 540.2953,-1134.9743 540.2953,-1126.4166"/>
<polygon fill="#000000" stroke="#000000" points="543.7954,-1126.4132 540.2953,-1116.4133 536.7954,-1126.4133 543.7954,-1126.4132"/>
</g>
<!-- node63 -->
<g id="node64" class="node">
<title>node63</title>
<ellipse fill="none" stroke="#000000" cx="478.2953" cy="-1242" rx="48.1917" ry="18"/>
<text text-anchor="middle" x="478.2953" y="-1238.3" font-family="Times,serif" font-size="14.00" fill="#000000">exp &#160;24:25</text>
</g>
<!-- node63&#45;&gt;node62 -->
<g id="edge63" class="edge">
<title>node63&#45;&gt;node62</title>
<path fill="none" stroke="#000000" d="M493.3037,-1224.5708C500.9193,-1215.7269 510.308,-1204.8239 518.6862,-1195.0945"/>
<polygon fill="#000000" stroke="#000000" points="521.5519,-1197.1302 525.425,-1187.2687 516.2475,-1192.5626 521.5519,-1197.1302"/>
</g>
<!-- node64 -->
<g id="node65" class="node">
<title>node64</title>
<ellipse fill="none" stroke="#000000" cx="601.2953" cy="-1242" rx="48.1917" ry="18"/>
<text text-anchor="middle" x="601.2953" y="-1238.3" font-family="Times,serif" font-size="14.00" fill="#000000">exp &#160;28:29</text>
</g>
<!-- node64&#45;&gt;node62 -->
<g id="edge64" class="edge">
<title>node64&#45;&gt;node62</title>
<path fill="none" stroke="#000000" d="M586.5289,-1224.5708C579.0361,-1215.7269 569.7989,-1204.8239 561.5558,-1195.0945"/>
<polygon fill="#000000" stroke="#000000" points="564.0603,-1192.6361 554.9257,-1187.2687 558.7194,-1197.161 564.0603,-1192.6361"/>
</g>
<!-- node65 -->
<g id="node66" class="node">
<title>node65</title>
<ellipse fill="none" stroke="#000000" cx="460.2953" cy="-1314" rx="62.2891" ry="18"/>
<text text-anchor="middle" x="460.2953" y="-1310.3" font-family="Times,serif" font-size="14.00" fill="#000000">name &#39;b&#39; 24:25</text>
</g>
<!-- node65&#45;&gt;node63 -->
<g id="edge65" class="edge">
<title>node65&#45;&gt;node63</title>
<path fill="none" stroke="#000000" d="M464.8374,-1295.8314C466.7837,-1288.0463 469.102,-1278.7729 471.2616,-1270.1347"/>
<polygon fill="#000000" stroke="#000000" points="474.662,-1270.9636 473.692,-1260.4133 467.871,-1269.2658 474.662,-1270.9636"/>
</g>
<!-- node66 -->
<g id="node67" class="node">
<title>node66</title>
<ellipse fill="none" stroke="#000000" cx="611.2953" cy="-1314" rx="70.3881" ry="18"/>
<text text-anchor="middle" x="611.2953" y="-1310.3" font-family="Times,serif" font-size="14.00" fill="#000000">number &#39;4&#39; 28:29</text>
</g>
<!-- node66&#45;&gt;node64 -->
<g id="edge66" class="edge">
<title>node66&#45;&gt;node64</title>
<path fill="none" stroke="#000000" d="M608.7718,-1295.8314C607.7023,-1288.131 606.4306,-1278.9743 605.242,-1270.4166"/>
<polygon fill="#000000" stroke="#000000" points="608.6952,-1269.8367 603.8527,-1260.4133 601.7617,-1270.7997 608.6952,-1269.8367"/>
</g>
</g>
</svg>
